<svg xmlns="http://www.w3.org/2000/svg" width="62.936" height="62.923" viewBox="0 0 62.936 62.923">
  <g id="Artboard_1_copy_6" data-name="Artboard 1 copy 6" transform="translate(-8 -8.86)">
    <path id="Path_7283" data-name="Path 7283" d="M68.01,71.783H59.77c-.153-.053-.3-.112-.458-.154a3.319,3.319,0,0,1-2.463-3.155q-.018-6.241,0-12.482A3.285,3.285,0,0,1,60.1,52.741q1.2-.026,2.4,0c.37.008.509-.115.493-.493-.023-.778.01-1.557-.013-2.335A1.529,1.529,0,0,0,61.6,48.371a6.347,6.347,0,0,0-.918-.051H44.821a3.247,3.247,0,0,1-3.487-3.191c-.03-.37-.164-.507-.521-.493-.493.015-.985,0-1.478,0-1.058,0-1.058,0-1.258,1.018-.011.059-.036.117-.053.176a3.287,3.287,0,0,1-3.375,2.491H21.864a4.986,4.986,0,0,0-.977.076,1.477,1.477,0,0,0-1.12,1.889h9.747l21.575.021c1.918,0,3.053,1.005,3.065,2.831q.044,7.865,0,15.733a2.675,2.675,0,0,1-2.066,2.779.919.919,0,0,0-.2.128H10.337A3.3,3.3,0,0,1,8,69.448V52.6a.732.732,0,0,0,.1-.153,2.713,2.713,0,0,1,2.992-2.169h6.719a12.727,12.727,0,0,1,.248-1.352,3.267,3.267,0,0,1,3.237-2.344q6.577-.013,13.155,0a1.693,1.693,0,0,0,1.642-.746,4.207,4.207,0,0,0,.261-1.041,4.684,4.684,0,0,0-.859-.164q-10.182-.013-20.348-.01a3.361,3.361,0,0,1-3.671-3.666V12.5A3.4,3.4,0,0,1,15.128,8.86H63.814a3.4,3.4,0,0,1,3.666,3.692v28.4a3.375,3.375,0,0,1-3.662,3.679c-1.291.01-2.582,0-3.873,0h-16.1c-.821,0-.972.23-.618,1a1.715,1.715,0,0,0,1.77.962h16.29a3.256,3.256,0,0,1,3.3,2.33,6.042,6.042,0,0,1,.177,1.453c.028.767,0,1.537,0,2.368,1,0,1.9-.01,2.792,0a3.3,3.3,0,0,1,3.352,3.293q.051,6.208,0,12.416a3.3,3.3,0,0,1-2.575,3.194A2.686,2.686,0,0,0,68.01,71.783Zm-54.7-52.741a2.973,2.973,0,0,0-.041.305c0,7.313-.01,14.626.016,21.938a1.971,1.971,0,0,0,.45,1.1,1.812,1.812,0,0,0,1.575.511H63.74c1.363,0,1.958-.593,1.958-1.936V19.042ZM31.045,69.967h20.1c.921,0,1.261-.328,1.261-1.256V53.284c0-.861-.328-1.189-1.191-1.191q-20.008-.039-40.016-.069c-1.105,0-1.381.282-1.381,1.384v15.18c0,1.112.264,1.378,1.371,1.378ZM13.277,17.193H65.7V12.738c0-1.58-.509-2.087-2.092-2.087H15.353c-.205,0-.411-.008-.614,0A1.487,1.487,0,0,0,13.292,12C13.244,13.716,13.277,15.434,13.277,17.193ZM58.649,60.7c-.015.182-.033.3-.033.422,0,2.376-.01,4.753,0,7.128a1.568,1.568,0,0,0,1.777,1.716h6.945a1.6,1.6,0,0,0,1.807-1.82V61.266c0-.179-.023-.356-.036-.565Zm4.3-6.162c-1.036,0-2.017-.033-2.994.011A1.25,1.25,0,0,0,58.7,55.626a32.049,32.049,0,0,0-.03,3.232h4.28Zm6.175,4.334c0-1.053.034-2.051-.015-3.046a1.367,1.367,0,0,0-1.174-1.253c-1.03-.061-2.068-.016-3.12-.016v4.316Z" fill="#a5a5a5"/>
    <path id="Path_7284" data-name="Path 7284" d="M8,377.78a3.3,3.3,0,0,0,2.337,2.335H8Z" transform="translate(0 -308.332)" fill="#a5a5a5"/>
    <path id="Path_7285" data-name="Path 7285" d="M243.93,93.16v1.683H225.6V93.16Z" transform="translate(-181.863 -70.455)" fill="#a5a5a5"/>
    <path id="Path_7286" data-name="Path 7286" d="M241.428,183.34v1.642H225.56V183.34Z" transform="translate(-181.83 -145.825)" fill="#a5a5a5"/>
    <path id="Path_7287" data-name="Path 7287" d="M225.64,115.71h14.625v1.659H225.64Z" transform="translate(-181.897 -89.302)" fill="#a5a5a5"/>
    <path id="Path_7288" data-name="Path 7288" d="M164.9,111.65l1.279-1.26c1.816,1.807,3.634,3.631,5.429,5.42l-5.443,5.42-1.067-1.256L169.2,115.9Z" transform="translate(-131.132 -84.856)" fill="#a5a5a5"/>
    <path id="Path_7289" data-name="Path 7289" d="M247.707,139.7c-.035-.056-.051-.072-.053-.09-.164-1.6-.164-1.6,1.449-1.6h12.345c.887,0,.887,0,.887.9v.79Z" transform="translate(-200.238 -107.94)" fill="#a5a5a5"/>
    <path id="Path_7290" data-name="Path 7290" d="M64.121,120.132c-.547.509-.949.882-1.314,1.217l-5.357-5.357,5.428-5.411,1.068,1.11-4.219,4.1Z" transform="translate(-41.329 -85.014)" fill="#a5a5a5"/>
    <path id="Path_7291" data-name="Path 7291" d="M109.749,121.458l-1.5-.934,6.114-9.783,1.5.938Z" transform="translate(-83.786 -85.148)" fill="#a5a5a5"/>
    <path id="Path_7292" data-name="Path 7292" d="M256.353,160.73v1.585h-8.517c0-.475-.023-.921.016-1.361a.463.463,0,0,1,.328-.314c2.675-.01,5.352,0,8.029.013C256.241,160.653,256.278,160.7,256.353,160.73Z" transform="translate(-200.442 -126.849)" fill="#a5a5a5"/>
    <path id="Path_7293" data-name="Path 7293" d="M79.6,352.968H59.34V351.24H79.6Z" transform="translate(-42.908 -286.151)" fill="#a5a5a5"/>
    <path id="Path_7294" data-name="Path 7294" d="M194.07,321.2h1.721v1.7H194.07Z" transform="translate(-155.512 -261.044)" fill="#a5a5a5"/>
    <path id="Path_7295" data-name="Path 7295" d="M229.6,322.925H227.91v-1.7H229.6Z" transform="translate(-183.794 -261.061)" fill="#a5a5a5"/>
    <path id="Path_7296" data-name="Path 7296" d="M196.558,351.28v1.695H194.83V351.28Z" transform="translate(-156.147 -286.184)" fill="#a5a5a5"/>
    <path id="Path_7297" data-name="Path 7297" d="M195.8,292.983H194.08V291.3H195.8Z" transform="translate(-155.52 -236.055)" fill="#a5a5a5"/>
    <path id="Path_7298" data-name="Path 7298" d="M171.6,291.16h1.708v1.7H171.6Z" transform="translate(-136.732 -235.938)" fill="#a5a5a5"/>
    <path id="Path_7299" data-name="Path 7299" d="M250.091,321.15h1.726V322.9c-.473,0-.939.023-1.4-.015a.468.468,0,0,1-.309-.328C250.072,322.111,250.091,321.666,250.091,321.15Z" transform="translate(-202.328 -261.002)" fill="#a5a5a5"/>
    <path id="Path_7300" data-name="Path 7300" d="M150.9,321.22v1.7h-1.7v-1.7Z" transform="translate(-118.011 -261.061)" fill="#a5a5a5"/>
    <path id="Path_7301" data-name="Path 7301" d="M171.49,322.987V321.31h1.726v1.677Z" transform="translate(-136.64 -261.136)" fill="#a5a5a5"/>
    <path id="Path_7302" data-name="Path 7302" d="M105.936,321.31c0,.483.023.948-.016,1.407a.468.468,0,0,1-.337.3c-.44.038-.885.015-1.373.015V321.31Z" transform="translate(-80.409 -261.136)" fill="#a5a5a5"/>
    <path id="Path_7303" data-name="Path 7303" d="M126.58,293.071V291.36h1.751c0,.466.018.93-.013,1.389a.425.425,0,0,1-.271.307C127.567,293.089,127.084,293.071,126.58,293.071Z" transform="translate(-99.106 -236.105)" fill="#a5a5a5"/>
    <path id="Path_7304" data-name="Path 7304" d="M150.784,291.34c.01.164.021.256.023.356.031,1.478-.21,1.659-1.757,1.268V291.34Z" transform="translate(-117.885 -236.088)" fill="#a5a5a5"/>
    <path id="Path_7305" data-name="Path 7305" d="M105.676,291.32c.018.138.039.236.044.337.062,1.467-.232,1.685-1.77,1.281V291.32Z" transform="translate(-80.192 -236.071)" fill="#a5a5a5"/>
    <path id="Path_7306" data-name="Path 7306" d="M227.83,291.25h1.7v1.687h-1.7Z" transform="translate(-183.727 -236.013)" fill="#a5a5a5"/>
    <path id="Path_7307" data-name="Path 7307" d="M128.141,321.29a1.082,1.082,0,0,1,.059.2c.115,1.586-.061,1.739-1.77,1.457V321.29Z" transform="translate(-98.98 -261.119)" fill="#a5a5a5"/>
    <path id="Path_7308" data-name="Path 7308" d="M250.09,291.16h1.731v1.746c-.465,0-.944.023-1.421-.016a.475.475,0,0,1-.3-.342C250.07,292.108,250.09,291.661,250.09,291.16Z" transform="translate(-202.327 -235.938)" fill="#a5a5a5"/>
    <path id="Path_7309" data-name="Path 7309" d="M36.64,323.009V321.28h1.7c0,.471.018.953-.015,1.429a.422.422,0,0,1-.292.287C37.593,323.029,37.146,323.009,36.64,323.009Z" transform="translate(-23.936 -261.111)" fill="#a5a5a5"/>
    <path id="Path_7310" data-name="Path 7310" d="M59.11,323.028V321.3h1.7c0,.484.018.985-.016,1.478,0,.09-.217.228-.342.237C60.033,323.047,59.606,323.028,59.11,323.028Z" transform="translate(-42.716 -261.128)" fill="#a5a5a5"/>
    <path id="Path_7311" data-name="Path 7311" d="M81.69,321.025c.215-.01.379-.028.544-.028,1.22-.013,1.417.222,1.163,1.445a.493.493,0,0,1-.328.314c-.44.039-.884.016-1.361.016Z" transform="translate(-61.588 -260.874)" fill="#a5a5a5"/>
    <path id="Path_7312" data-name="Path 7312" d="M81.65,292.624V290.73c.586.066,1.24-.028,1.631.248a1.364,1.364,0,0,1,0,1.345C82.911,292.612,82.253,292.537,81.65,292.624Z" transform="translate(-61.554 -235.578)" fill="#a5a5a5"/>
    <path id="Path_7313" data-name="Path 7313" d="M59.12,292.8v-1.766c.48,0,.941-.018,1.4.013a.422.422,0,0,1,.3.278,5.583,5.583,0,0,1,0,1.159.493.493,0,0,1-.348.3A12.888,12.888,0,0,1,59.12,292.8Z" transform="translate(-42.725 -235.828)" fill="#a5a5a5"/>
    <path id="Path_7314" data-name="Path 7314" d="M36.83,351.12h1.616v1.715H36.83Z" transform="translate(-24.095 -286.05)" fill="#a5a5a5"/>
    <path id="Path_7315" data-name="Path 7315" d="M36.71,292.983V291.25H38.4c0,.481.023.943-.015,1.4a.476.476,0,0,1-.328.319A12.592,12.592,0,0,1,36.71,292.983Z" transform="translate(-23.995 -236.013)" fill="#a5a5a5"/>
    <path id="Path_7316" data-name="Path 7316" d="M102.57,36.375V34.68h1.693v1.695Z" transform="translate(-79.039 -21.58)" fill="#a5a5a5"/>
    <path id="Path_7317" data-name="Path 7317" d="M59.424,34.59V36.3H57.77V34.59Z" transform="translate(-41.596 -21.504)" fill="#a5a5a5"/>
    <path id="Path_7318" data-name="Path 7318" d="M80.09,36.093V34.373c.493,0,.972-.013,1.45.013.1,0,.189.164.264.263.031.041.013.118.018.179C81.924,36.2,81.772,36.316,80.09,36.093Z" transform="translate(-60.251 -21.32)" fill="#a5a5a5"/>
  </g>
</svg>
