<svg id="Artboard_1" data-name="Artboard 1" xmlns="http://www.w3.org/2000/svg" width="68.104" height="68.104" viewBox="0 0 68.104 68.104">
  <path id="Path_7280" data-name="Path 7280" d="M76.1,66.66v4.523c-.046.19-.1.376-.135.568a4.839,4.839,0,0,1-3.586,4.129c-.223.071-.445.149-.669.225H12.39c-.16-.057-.317-.122-.481-.168a4.953,4.953,0,0,1-3.694-3.662c-.085-.316-.144-.638-.215-.958V66.66h2.456V65.7c0-12.06.028-24.12-.018-36.18a5.2,5.2,0,0,1,5.422-5.461c5.5.114,11,.025,16.494.046.619,0,.795-.177.786-.789-.032-2.128-.023-4.256,0-6.385a.792.792,0,0,0-.631-.906c-1.993-.66-3.969-1.376-5.95-2.073-.177-.06-.33-.145-.591-.262.286-.106.449-.177.615-.229Q32.83,11.274,39.1,9.08c.951-.335,1.892-.725,2.823-1.08h.266a5.273,5.273,0,0,0,.576.286q7.231,2.538,14.465,5.065c.28.1.557.206,1,.371-.839.3-1.488.568-2.16.757a.7.7,0,0,0-.568.814c.018,1.86.009,3.724,0,5.585,0,.254-.032.509-.048.745H53.58V15.367c-.759.264-1.394.518-2.048.709-.454.128-.569.376-.566.818.02,2.128.035,4.256,0,6.385-.012.683.2.853.865.85q8.444-.037,16.888-.009a4.782,4.782,0,0,1,4.632,3.336,7.682,7.682,0,0,1,.286,2.224q.027,18.019.012,36.038v.954Zm-4.372.018V29.618c0-2.467-1.16-3.639-3.609-3.639H51.962a1.836,1.836,0,0,0-.594.021c-.149.051-.355.222-.365.355-.076.988-.112,1.979-.165,3.07h.839c5.276,0,10.553.011,15.829-.014.651,0,.814.193.812.823q-.027,16.13,0,32.255c0,.642-.177.816-.819.816q-25.441-.027-50.877,0c-.621,0-.837-.137-.837-.8q.028-16.16,0-32.323c0-.621.2-.771.8-.77,5.276.021,10.553.012,15.829.012h.862c-.053-.968-.137-1.846-.137-2.726,0-.532-.153-.731-.709-.729-5.585.018-11.173,0-16.758.016a3.077,3.077,0,0,0-3.292,3.352V65.917c0,.236.021.474.035.773H33.539c0,.326-.014.585,0,.844a.942.942,0,0,0,1.053,1.016h14.9c.709,0,1.032-.339,1.075-1.064.016-.254.027-.507.041-.8ZM9.976,68.618c0,.738.041,1.4,0,2.056a3.243,3.243,0,0,0,3.5,3.492c12.743-.053,25.488-.027,38.232-.027H70.987a2.908,2.908,0,0,0,3.061-2.483,20.9,20.9,0,0,0,.027-2.985,2.793,2.793,0,0,0-.342-.044q-10.5,0-21.011.012a.849.849,0,0,0-.591.378,2.865,2.865,0,0,1-2.531,1.46q-7.545.023-15.093,0a2.63,2.63,0,0,1-2.391-1.318.978.978,0,0,0-1-.546q-10.173.021-20.346.011Zm7.779-37.253V61.337h6.667c.016-.335.044-.64.044-.944,0-5.1-.012-10.193,0-15.288a6.174,6.174,0,0,1,5.087-6.385c1.873-.436,3.749-.857,5.624-1.275,1.816-.406,1.8-.4,1.816-2.228a1.343,1.343,0,0,0-.489-1.064,19.764,19.764,0,0,1-2.02-2.27,1.17,1.17,0,0,0-1.064-.573c-4.966.016-9.932,0-14.889.012C18.271,31.317,18.012,31.347,17.754,31.365Zm48.659.046a2.694,2.694,0,0,0-.454-.089c-5.184,0-10.368-.011-15.552.012a1.078,1.078,0,0,0-.66.413,12.37,12.37,0,0,1-1.614,1.919A2.565,2.565,0,0,0,47.091,36.1c.028.722.177,1.137.947,1.158a1.083,1.083,0,0,1,.2.032c2.091.472,4.186.928,6.273,1.419a6.173,6.173,0,0,1,5.133,6.472c.014,5.074,0,10.146,0,15.22,0,.3.032.6.051.958h5.842c.874,0,.876,0,.876-.848v-29.1ZM33.007,46.957v.837c0,4.28.011,8.557-.012,12.835,0,.583.153.757.743.748q3.325-.051,6.651,0c.6.011.747-.177.743-.752-.025-3.613,0-7.227-.034-10.84a1.938,1.938,0,0,0-.461-1.16c-2.116-2.389-4.34-4.686-6.385-7.137-1-1.2-1.951-1.789-3.455-1.092a3.056,3.056,0,0,1-.646.147,4.4,4.4,0,0,0-3.8,4.7v15.3a1.16,1.16,0,0,0,.016.459c.069.145.231.355.355.355,1.437.025,2.871.016,4.416.016V46.957Zm20.007,0v14.41H57.35c.394,0,.411-.234.411-.523,0-5.365.023-10.73-.021-16.093a4.226,4.226,0,0,0-3.3-4.088c-.874-.232-1.759-.442-2.66-.6a1.009,1.009,0,0,0-.793.252q-3.863,4.216-7.674,8.472a1.355,1.355,0,0,0-.314.821c-.021,3.7,0,7.4-.025,11.106,0,.552.208.658.709.654,2.217-.023,4.434-.032,6.651,0,.607,0,.787-.16.784-.775-.025-4.278-.014-8.557-.014-12.835v-.816ZM35.006,23.666c0,1.252-.039,2.442,0,3.629a7.037,7.037,0,0,0,12.379,4.439c2.066-2.366,1.717-5.2,1.676-8.061a29.462,29.462,0,0,1-14.055-.007Zm-3.221-9.99a2.276,2.276,0,0,0,.294.2c3.212,1.121,6.426,2.251,9.641,3.35a1.353,1.353,0,0,0,.819-.037q4.611-1.586,9.2-3.207a6.06,6.06,0,0,0,.583-.271c-.188-.089-.261-.131-.341-.16C48.79,12.43,45.6,11.306,42.4,10.212a1.477,1.477,0,0,0-.887.05c-1.862.633-3.714,1.295-5.569,1.951ZM35,16.951c0,1.435.023,2.715-.012,4-.014.514.151.8.654.873,1.678.257,3.348.612,5.035.748a22.659,22.659,0,0,0,7.818-.754.714.714,0,0,0,.619-.835c-.034-1.039,0-2.08-.012-3.121,0-.271-.034-.532-.057-.871-.305.092-.514.147-.72.218-1.919.67-3.831,1.355-5.759,2a1.7,1.7,0,0,1-1,0c-1.656-.546-3.3-1.14-4.945-1.715-.493-.174-.99-.333-1.621-.543Zm7.052,30.363,7.094-7.843c-.855-.2-1.513-.39-2.187-.477a1.171,1.171,0,0,0-.851.273C45,40.321,43.925,41.408,42.855,42.5a8.178,8.178,0,0,0-.685.938c-1.513-1.52-2.823-2.838-4.141-4.155-.151-.149-.369-.378-.521-.355-.812.129-1.616.328-2.561.532ZM45.17,35.575a9.939,9.939,0,0,1-6.346-.018c.05.736-.133,1.5.177,1.873A43.863,43.863,0,0,0,42.119,40.6a28.48,28.48,0,0,1,2.323-2.345,2.536,2.536,0,0,0,.729-2.676Z" transform="translate(-8 -8)" fill="#95c14d"/>
  <path id="Path_7281" data-name="Path 7281" d="M367.25,369.172c.223-.076.445-.154.669-.225a4.841,4.841,0,0,0,3.586-4.129c.03-.192.089-.378.135-.568v4.922Z" transform="translate(-303.536 -301.068)" fill="#95c14d"/>
  <path id="Path_7282" data-name="Path 7282" d="M8,365c.071.319.129.642.215.958a4.948,4.948,0,0,0,3.694,3.662c.163.046.321.112.481.169H8Z" transform="translate(-8 -301.685)" fill="#95c14d"/>
</svg>
